<svg width="194" height="63" viewBox="0 0 194 63" fill="none" xmlns="http://www.w3.org/2000/svg">
<g clip-path="url(#clip0_7036_15)">
<path d="M187.216 38.5021L192.57 42.0529C190.833 44.5992 186.676 48.9679 179.491 48.9679C170.567 48.9679 163.922 42.0998 163.922 33.3627C163.922 24.0653 170.638 17.7578 178.739 17.7578C186.888 17.7578 190.879 24.2052 192.171 27.6859L192.876 29.4616L171.883 38.1049C173.479 41.2354 175.969 42.8239 179.491 42.8239C183.013 42.8239 185.455 41.0952 187.216 38.5021ZM170.756 32.8726L184.774 27.0788C183.999 25.1401 181.698 23.7619 178.95 23.7619C175.452 23.7619 170.591 26.8456 170.756 32.8726Z" fill="#FF302F"/>
<path d="M153.801 1.84901H160.564V47.5428H153.801V1.84863V1.84901Z" fill="#20B15A"/>
<path d="M143.141 18.9722H149.669V46.7249C149.669 58.2415 142.835 62.9837 134.757 62.9837C127.149 62.9837 122.57 57.8912 120.856 53.7565L126.844 51.28C127.924 53.8262 130.53 56.8401 134.757 56.8401C139.947 56.8401 143.141 53.6395 143.141 47.6594V45.4169H142.906C141.356 47.2855 138.397 48.9674 134.64 48.9674C126.797 48.9674 119.611 42.1694 119.611 33.4094C119.611 24.6021 126.797 17.7344 134.64 17.7344C138.374 17.7344 141.356 19.393 142.906 21.2151H143.141V18.9726V18.9722ZM143.61 33.4094C143.61 27.8961 139.923 23.878 135.227 23.878C130.483 23.878 126.491 27.8961 126.491 33.4094C126.491 38.8521 130.483 42.8001 135.227 42.8001C139.924 42.8237 143.61 38.8521 143.61 33.4094H143.61Z" fill="#3686F7"/>
<path d="M82.4853 33.2927C82.4853 42.2867 75.4408 48.8975 66.7992 48.8975C58.1579 48.8975 51.113 42.2634 51.113 33.2927C51.113 24.2522 58.1579 17.6646 66.7992 17.6646C75.4408 17.6646 82.4853 24.2522 82.4853 33.2927ZM75.6286 33.2927C75.6286 27.6864 71.5424 23.8314 66.7992 23.8314C62.056 23.8314 57.9698 27.6864 57.9698 33.2927C57.9698 38.8524 62.056 42.7539 66.7992 42.7539C71.5428 42.7539 75.6286 38.8524 75.6286 33.2927Z" fill="#FF302F"/>
<path d="M116.746 33.3627C116.746 42.3567 109.701 48.9676 101.06 48.9676C92.4185 48.9676 85.374 42.3563 85.374 33.3627C85.374 24.3222 92.4185 17.7578 101.06 17.7578C109.701 17.7578 116.746 24.2989 116.746 33.3627ZM109.866 33.3627C109.866 27.7564 105.78 23.9014 101.036 23.9014C96.2932 23.9014 92.2071 27.7564 92.2071 33.3627C92.2071 38.9224 96.2932 42.8239 101.036 42.8239C105.803 42.8239 109.866 38.8992 109.866 33.3627Z" fill="#FFBA40"/>
<path d="M25.3293 42.1229C15.4901 42.1229 7.7882 34.2269 7.7882 24.4387C7.7882 14.6508 15.4901 6.75481 25.3293 6.75481C30.6365 6.75481 34.5108 8.83381 37.3756 11.4971L42.0958 6.80168C38.1039 2.99393 32.7734 0.0966797 25.3293 0.0966797C11.8506 0.0970547 0.508484 11.0302 0.508484 24.4387C0.508484 37.8479 11.8506 48.7807 25.3293 48.7807C32.6091 48.7807 38.1039 46.3979 42.4012 41.9594C46.8157 37.5674 48.1776 31.4002 48.1776 26.4011C48.1776 24.8358 47.9899 23.2241 47.7784 22.0327H25.3293V28.5269H41.3208C40.8511 32.5919 39.5597 35.3718 37.6576 37.2637C35.3563 39.5767 31.7168 42.1229 25.3293 42.1229Z" fill="#3686F7"/>
</g>
<defs>
<clipPath id="clip0_7036_15">
<rect width="193" height="63" fill="white" transform="translate(0.228088)"/>
</clipPath>
</defs>
</svg>
